{
  "asset" : {
    "version" : "2.0",
    "generator" : "OSRS-Environment-Exporter"
  },
  "scene" : 0,
  "scenes" : [ {
    "nodes" : [ 2 ]
  } ],
  "nodes" : [ {
    "mesh" : 0
  }, {
    "mesh" : 1
  }, {
    "children" : [ 0, 1 ],
    "name" : "region_0_0_9551"
  } ],
  "meshes" : [ {
    "primitives" : [ {
      "attributes" : {
        "POSITION" : 0,
        "COLOR_0" : 1
      },
      "material" : 0,
      "mode" : 4
    } ]
  }, {
    "primitives" : [ {
      "attributes" : {
        "POSITION" : 2,
        "TEXCOORD_0" : 3
      },
      "material" : 1,
      "mode" : 4
    } ]
  } ],
  "materials" : [ {
    "name" : "rs_untextured",
    "pbrMetallicRoughness" : {
      "metallicFactor" : 0.0
    },
    "doubleSided" : true,
    "alphaMode" : "MASK",
    "alphaCutoff" : 0.2,
    "extensions" : {
      "KHR_materials_specular" : {
        "specularFactor" : 0.0,
        "specularColorFactor" : [ 0.0, 0.0, 0.0 ]
      }
    }
  }, {
    "name" : "rs_texture_31",
    "pbrMetallicRoughness" : {
      "baseColorTexture" : {
        "index" : 0
      },
      "metallicFactor" : 0.0
    },
    "doubleSided" : true,
    "alphaMode" : "MASK",
    "alphaCutoff" : 0.2,
    "extensions" : {
      "KHR_materials_specular" : {
        "specularFactor" : 0.0,
        "specularColorFactor" : [ 0.0, 0.0, 0.0 ]
      }
    }
  } ],
  "textures" : [ {
    "source" : 0
  } ],
  "images" : [ {
    "uri" : "./Textures/31.png"
  } ],
  "accessors" : [ {
    "bufferView" : 0,
    "count" : 1525806,
    "min" : [ 0.0, -1.2, -82.25 ],
    "max" : [ 81.92, 14.4, -0.0 ],
    "byteOffset" : 0,
    "type" : "VEC3",
    "componentType" : 5126
  }, {
    "bufferView" : 1,
    "count" : 1525806,
    "min" : [ 0.015686275, 0.003921569, 0.0, 0.058823526 ],
    "max" : [ 0.9882353, 0.9843137, 0.9843137, 1.0 ],
    "byteOffset" : 0,
    "type" : "VEC4",
    "componentType" : 5126
  }, {
    "bufferView" : 2,
    "count" : 5847,
    "min" : [ 1.12, 0.4, -80.64 ],
    "max" : [ 78.24, 9.6, -1.12 ],
    "byteOffset" : 0,
    "type" : "VEC3",
    "componentType" : 5126
  }, {
    "bufferView" : 3,
    "count" : 5847,
    "min" : [ 0.0, 0.0 ],
    "max" : [ 1.0, 1.0009012 ],
    "byteOffset" : 0,
    "type" : "VEC2",
    "componentType" : 5126
  } ],
  "bufferViews" : [ {
    "buffer" : 0,
    "byteOffset" : 0,
    "byteLength" : 18309672,
    "target" : 34962
  }, {
    "buffer" : 0,
    "byteOffset" : 18309672,
    "byteLength" : 24412896,
    "target" : 34962
  }, {
    "buffer" : 0,
    "byteOffset" : 42722568,
    "byteLength" : 70164,
    "target" : 34962
  }, {
    "buffer" : 0,
    "byteOffset" : 42792732,
    "byteLength" : 46776,
    "target" : 34962
  } ],
  "buffers" : [ {
    "uri" : "data.bin",
    "byteLength" : 42839508
  } ],
  "extensionsUsed" : [ "KHR_materials_specular" ]
}